<?xml version="1.0" encoding="UTF-8" standalone="no"?><!DOCTYPE svg PUBLIC "-//W3C//DTD SVG 1.1//EN" "http://www.w3.org/Graphics/SVG/1.1/DTD/svg11.dtd"><!-- Generated by graphviz version 2.40.1 (20161225.0304)
 --><!-- Title: G Pages: 1 --><svg xmlns="http://www.w3.org/2000/svg" xmlns:xlink="http://www.w3.org/1999/xlink" width="2245pt" height="1662pt" viewBox="0.00 0.00 2245.03 1661.60">
<g id="graph0" class="graph" transform="scale(1 1) rotate(0) translate(4 1657.6)">
<title>G</title>
<polygon fill="#ffffff" stroke="transparent" points="-4,4 -4,-1657.6 2241.034,-1657.6 2241.034,4 -4,4"/>
<!-- 0 -->
<g id="0" class="node">
<title>0</title>
<polygon fill="none" stroke="#338866" points="2017.5136,-1653.6 1963.5136,-1653.6 1963.5136,-1617.6 2017.5136,-1617.6 2017.5136,-1653.6"/>
</g>
<!-- 1 -->
<g id="1" class="node">
<title>1</title>
<polygon fill="none" stroke="#000000" points="2017.5136,-1564.8 1963.5136,-1564.8 1963.5136,-1528.8 2017.5136,-1528.8 2017.5136,-1564.8"/>
</g>
<!-- 0&#45;&gt;1 -->
<g id="edge1" class="edge">
<title>0-&gt;1</title>
<path fill="none" stroke="#000000" d="M1990.5136,-1617.2006C1990.5136,-1605.0949 1990.5136,-1589.0076 1990.5136,-1575.2674"/>
<polygon fill="#000000" stroke="#000000" points="1994.0137,-1574.872 1990.5136,-1564.872 1987.0137,-1574.8721 1994.0137,-1574.872"/>
<text text-anchor="middle" x="2058.163" y="-1587" font-family="Times,serif" font-size="14.00" fill="#000000">startGameButtonClick()</text>
</g>
<!-- 2 -->
<g id="2" class="node">
<title>2</title>
<polygon fill="none" stroke="#000000" points="2017.5136,-1476 1963.5136,-1476 1963.5136,-1440 2017.5136,-1440 2017.5136,-1476"/>
</g>
<!-- 1&#45;&gt;2 -->
<g id="edge2" class="edge">
<title>1-&gt;2</title>
<path fill="none" stroke="#000000" d="M1990.5136,-1528.4006C1990.5136,-1516.2949 1990.5136,-1500.2076 1990.5136,-1486.4674"/>
<polygon fill="#000000" stroke="#000000" points="1994.0137,-1486.072 1990.5136,-1476.072 1987.0137,-1486.0721 1994.0137,-1486.072"/>
<text text-anchor="middle" x="2069.4442" y="-1498.2" font-family="Times,serif" font-size="14.00" fill="#000000">moveToMovieComponent()</text>
</g>
<!-- 3 -->
<g id="3" class="node">
<title>3</title>
<polygon fill="none" stroke="#000000" points="2017.5136,-1387.2 1963.5136,-1387.2 1963.5136,-1351.2 2017.5136,-1351.2 2017.5136,-1387.2"/>
</g>
<!-- 2&#45;&gt;3 -->
<g id="edge3" class="edge">
<title>2-&gt;3</title>
<path fill="none" stroke="#000000" d="M1990.5136,-1439.6006C1990.5136,-1427.4949 1990.5136,-1411.4076 1990.5136,-1397.6674"/>
<polygon fill="#000000" stroke="#000000" points="1994.0137,-1397.272 1990.5136,-1387.272 1987.0137,-1397.2721 1994.0137,-1397.272"/>
<text text-anchor="middle" x="2039.1076" y="-1409.4" font-family="Times,serif" font-size="14.00" fill="#000000">playIntroMovie()</text>
</g>
<!-- 4 -->
<g id="4" class="node">
<title>4</title>
<polygon fill="none" stroke="#000000" points="1929.5136,-1244.4 1875.5136,-1244.4 1875.5136,-1208.4 1929.5136,-1208.4 1929.5136,-1244.4"/>
</g>
<!-- 3&#45;&gt;4 -->
<g id="edge4" class="edge">
<title>3-&gt;4</title>
<path fill="none" stroke="#000000" d="M1963.2246,-1358.7355C1951.3412,-1352.8934 1938.2262,-1344.4828 1929.7758,-1333.2 1912.6432,-1310.3251 1906.222,-1277.7915 1903.8454,-1254.6541"/>
<polygon fill="#000000" stroke="#000000" points="1907.313,-1254.1184 1902.9941,-1244.4439 1900.3372,-1254.7002 1907.313,-1254.1184"/>
<text text-anchor="middle" x="1979.8825" y="-1320.6" font-family="Times,serif" font-size="14.00" fill="#000000">terminateMovie()</text>
</g>
<!-- 35 -->
<g id="35" class="node">
<title>35</title>
<polygon fill="none" stroke="#000000" points="2098.5136,-1298.4 2044.5136,-1298.4 2044.5136,-1262.4 2098.5136,-1262.4 2098.5136,-1298.4"/>
</g>
<!-- 3&#45;&gt;35 -->
<g id="edge42" class="edge">
<title>3-&gt;35</title>
<path fill="none" stroke="#000000" d="M2013.6007,-1351.0325C2019.9964,-1345.5762 2026.7579,-1339.3884 2032.5136,-1333.2 2039.9643,-1325.189 2047.3114,-1315.7612 2053.5848,-1307.1059"/>
<polygon fill="#000000" stroke="#000000" points="2056.5496,-1308.975 2059.4643,-1298.789 2050.8337,-1304.9342 2056.5496,-1308.975"/>
<text text-anchor="middle" x="2084.6153" y="-1320.6" font-family="Times,serif" font-size="14.00" fill="#000000">mouseClick()</text>
</g>
<!-- 5 -->
<g id="5" class="node">
<title>5</title>
<polygon fill="none" stroke="#000000" points="1892.5136,-1101.6 1838.5136,-1101.6 1838.5136,-1065.6 1892.5136,-1065.6 1892.5136,-1101.6"/>
</g>
<!-- 4&#45;&gt;5 -->
<g id="edge5" class="edge">
<title>4-&gt;5</title>
<path fill="none" stroke="#000000" d="M1875.1779,-1209.9528C1868.6735,-1204.5966 1862.5839,-1198.0302 1858.9932,-1190.4 1847.385,-1165.7328 1851.229,-1134.2488 1856.6235,-1111.8704"/>
<polygon fill="#000000" stroke="#000000" points="1860.0643,-1112.5498 1859.2479,-1101.9865 1853.2987,-1110.7533 1860.0643,-1112.5498"/>
<text text-anchor="middle" x="1951.2738" y="-1168.2" font-family="Times,serif" font-size="14.00" fill="#000000">moveToMainMenuComponent()</text>
</g>
<!-- 6 -->
<g id="6" class="node">
<title>6</title>
<polygon fill="none" stroke="#000000" points="1703.5136,-1012.8 1649.5136,-1012.8 1649.5136,-976.8 1703.5136,-976.8 1703.5136,-1012.8"/>
</g>
<!-- 5&#45;&gt;6 -->
<g id="edge6" class="edge">
<title>5-&gt;6</title>
<path fill="none" stroke="#000000" d="M1838.4345,-1070.8771C1805.4529,-1055.381 1749.6091,-1029.1433 1712.8963,-1011.8941"/>
<polygon fill="#000000" stroke="#000000" points="1714.0816,-1008.584 1703.5424,-1007.4993 1711.1049,-1014.9195 1714.0816,-1008.584"/>
<text text-anchor="middle" x="1825.2419" y="-1035" font-family="Times,serif" font-size="14.00" fill="#000000">Reset score()</text>
</g>
<!-- 7 -->
<g id="7" class="node">
<title>7</title>
<polygon fill="none" stroke="#000000" points="1587.5136,-924 1533.5136,-924 1533.5136,-888 1587.5136,-888 1587.5136,-924"/>
</g>
<!-- 6&#45;&gt;7 -->
<g id="edge7" class="edge">
<title>6-&gt;7</title>
<path fill="none" stroke="#000000" d="M1649.2183,-988.3406C1630.9492,-982.9081 1607.2807,-973.6034 1590.571,-958.8 1582.7189,-951.8437 1576.4313,-942.3236 1571.6778,-933.2814"/>
<polygon fill="#000000" stroke="#000000" points="1574.7748,-931.6458 1567.2781,-924.1592 1568.4698,-934.6868 1574.7748,-931.6458"/>
<text text-anchor="middle" x="1678.9849" y="-946.2" font-family="Times,serif" font-size="14.00" fill="#000000">selectQuestionUpdaterButton()</text>
</g>
<!-- 9 -->
<g id="9" class="node">
<title>9</title>
<polygon fill="none" stroke="#000000" points="1124.5136,-924 1070.5136,-924 1070.5136,-888 1124.5136,-888 1124.5136,-924"/>
</g>
<!-- 6&#45;&gt;9 -->
<g id="edge9" class="edge">
<title>6-&gt;9</title>
<path fill="none" stroke="#000000" d="M1649.3405,-993.8292C1549.952,-990.1501 1209.6083,-976.379 1164.2512,-958.8 1148.5814,-952.7269 1133.6606,-941.6263 1121.917,-931.1649"/>
<polygon fill="#000000" stroke="#000000" points="1124.0277,-928.3479 1114.3242,-924.0943 1119.2572,-933.4707 1124.0277,-928.3479"/>
<text text-anchor="middle" x="1270.6448" y="-946.2" font-family="Times,serif" font-size="14.00" fill="#000000">selectDenominatorsWebPageButton()</text>
</g>
<!-- 12 -->
<g id="12" class="node">
<title>12</title>
<polygon fill="none" stroke="#000000" points="1368.5136,-924 1314.5136,-924 1314.5136,-888 1368.5136,-888 1368.5136,-924"/>
</g>
<!-- 6&#45;&gt;12 -->
<g id="edge12" class="edge">
<title>6-&gt;12</title>
<path fill="none" stroke="#000000" d="M1649.2622,-993.0245C1589.823,-988.8522 1450.3911,-977.3526 1407.1376,-958.8 1392.0693,-952.3368 1377.6115,-941.4064 1366.1202,-931.1618"/>
<polygon fill="#000000" stroke="#000000" points="1368.3773,-928.4814 1358.6675,-924.2423 1363.6144,-933.6113 1368.3773,-928.4814"/>
<text text-anchor="middle" x="1490.7016" y="-946.2" font-family="Times,serif" font-size="14.00" fill="#000000">selectGameSequenceButton()</text>
</g>
<!-- 33 -->
<g id="33" class="node">
<title>33</title>
<polygon fill="none" stroke="#000000" points="1861.5136,-924 1807.5136,-924 1807.5136,-888 1861.5136,-888 1861.5136,-924"/>
</g>
<!-- 6&#45;&gt;33 -->
<g id="edge40" class="edge">
<title>6-&gt;33</title>
<path fill="none" stroke="#000000" d="M1703.6376,-991.2379C1728.7561,-986.8896 1766.2356,-977.6434 1793.5136,-958.8 1803.4564,-951.9316 1812.0939,-941.9154 1818.8429,-932.4484"/>
<polygon fill="#000000" stroke="#000000" points="1821.835,-934.2706 1824.4934,-924.0147 1816.0196,-930.3743 1821.835,-934.2706"/>
<text text-anchor="middle" x="1892.3769" y="-946.2" font-family="Times,serif" font-size="14.00" fill="#000000">selectMathUmbrellaButton()</text>
</g>
<!-- 8 -->
<g id="8" class="node">
<title>8</title>
<polygon fill="none" stroke="#000000" points="1574.5136,-835.2 1520.5136,-835.2 1520.5136,-799.2 1574.5136,-799.2 1574.5136,-835.2"/>
</g>
<!-- 7&#45;&gt;8 -->
<g id="edge8" class="edge">
<title>7-&gt;8</title>
<path fill="none" stroke="#000000" d="M1553.3508,-887.9577C1551.4255,-882.2995 1549.5942,-875.9708 1548.5682,-870 1547.2231,-862.1725 1546.6676,-853.5967 1546.5212,-845.6753"/>
<polygon fill="#000000" stroke="#000000" points="1550.0216,-845.417 1546.5397,-835.4107 1543.0216,-845.4044 1550.0216,-845.417"/>
<text text-anchor="middle" x="1657.9863" y="-857.4" font-family="Times,serif" font-size="14.00" fill="#000000">moveToQuestionUpdaterComponent()</text>
</g>
<!-- 10 -->
<g id="10" class="node">
<title>10</title>
<polygon fill="none" stroke="#000000" points="1010.5136,-835.2 956.5136,-835.2 956.5136,-799.2 1010.5136,-799.2 1010.5136,-835.2"/>
</g>
<!-- 9&#45;&gt;10 -->
<g id="edge10" class="edge">
<title>9-&gt;10</title>
<path fill="none" stroke="#000000" d="M1074.1689,-887.8157C1057.0322,-874.4672 1033.5725,-856.1933 1014.8115,-841.5794"/>
<polygon fill="#000000" stroke="#000000" points="1016.8669,-838.744 1006.827,-835.36 1012.5653,-844.2663 1016.8669,-838.744"/>
<text text-anchor="middle" x="1154.1399" y="-857.4" font-family="Times,serif" font-size="14.00" fill="#000000">navigateToDenominatorsWebPage()</text>
</g>
<!-- 11 -->
<g id="11" class="node">
<title>11</title>
<polygon fill="none" stroke="#000000" points="972.5136,-746.4 918.5136,-746.4 918.5136,-710.4 972.5136,-710.4 972.5136,-746.4"/>
</g>
<!-- 10&#45;&gt;11 -->
<g id="edge11" class="edge">
<title>10-&gt;11</title>
<path fill="none" stroke="#000000" d="M975.6399,-798.8006C970.357,-786.4552 963.3021,-769.9689 957.3475,-756.0539"/>
<polygon fill="#000000" stroke="#000000" points="960.3991,-754.2886 953.2471,-746.472 953.9636,-757.0426 960.3991,-754.2886"/>
<text text-anchor="middle" x="1005.2419" y="-768.6" font-family="Times,serif" font-size="14.00" fill="#000000">Reset score()</text>
</g>
<!-- 13 -->
<g id="13" class="node">
<title>13</title>
<polygon fill="none" stroke="#000000" points="1217.5136,-835.2 1163.5136,-835.2 1163.5136,-799.2 1217.5136,-799.2 1217.5136,-835.2"/>
</g>
<!-- 12&#45;&gt;13 -->
<g id="edge13" class="edge">
<title>12-&gt;13</title>
<path fill="none" stroke="#000000" d="M1315.3122,-887.9414C1299.6584,-877.4007 1279.237,-864.0786 1260.5136,-853.2 1249.7129,-846.9247 1237.7009,-840.541 1226.7196,-834.9264"/>
<polygon fill="#000000" stroke="#000000" points="1228.2904,-831.7987 1217.7869,-830.4104 1225.132,-838.0458 1228.2904,-831.7987"/>
<text text-anchor="middle" x="1392.703" y="-857.4" font-family="Times,serif" font-size="14.00" fill="#000000">moveToGameSequenceComponent()</text>
</g>
<!-- 14 -->
<g id="14" class="node">
<title>14</title>
<polygon fill="none" stroke="#000000" points="1044.5136,-746.4 990.5136,-746.4 990.5136,-710.4 1044.5136,-710.4 1044.5136,-746.4"/>
</g>
<!-- 13&#45;&gt;14 -->
<g id="edge14" class="edge">
<title>13-&gt;14</title>
<path fill="none" stroke="#000000" d="M1163.4823,-803.325C1133.988,-788.1857 1086.6148,-763.8693 1053.876,-747.0646"/>
<polygon fill="#000000" stroke="#000000" points="1055.1347,-743.7766 1044.6399,-742.3238 1051.9381,-750.0041 1055.1347,-743.7766"/>
<text text-anchor="middle" x="1242.9551" y="-768.6" font-family="Times,serif" font-size="14.00" fill="#000000">displayQuestion({JS_Obj questionId:"q3"})</text>
</g>
<!-- 15 -->
<g id="15" class="node">
<title>15</title>
<polygon fill="none" stroke="#000000" points="616.5136,-657.6 562.5136,-657.6 562.5136,-621.6 616.5136,-621.6 616.5136,-657.6"/>
</g>
<!-- 14&#45;&gt;15 -->
<g id="edge15" class="edge">
<title>14-&gt;15</title>
<path fill="none" stroke="#000000" d="M990.4569,-713.4178C987.5026,-712.2241 984.4875,-711.1803 981.5136,-710.4 942.4543,-700.1516 652.7634,-713.8138 618.5274,-692.4 609.2828,-686.6177 602.756,-676.7888 598.2666,-667.168"/>
<polygon fill="#000000" stroke="#000000" points="601.4515,-665.7091 594.4311,-657.7741 594.9709,-668.3552 601.4515,-665.7091"/>
<text text-anchor="middle" x="803.0067" y="-679.8" font-family="Times,serif" font-size="14.00" fill="#000000">userAnswer({JS_Obj questionId:"q3", selectedOptionIndex:3.0})</text>
</g>
<!-- 14&#45;&gt;15 -->
<g id="edge29" class="edge">
<title>14-&gt;15</title>
<path fill="none" stroke="#000000" d="M1011.4896,-710.3406C1006.4985,-698.3806 998.1504,-683.4927 985.5136,-675.6 955.492,-656.8492 719.4019,-645.0364 626.6983,-641.08"/>
<polygon fill="#000000" stroke="#000000" points="626.777,-637.5803 616.639,-640.6576 626.4833,-644.5741 626.777,-637.5803"/>
<text text-anchor="middle" x="1186.0067" y="-679.8" font-family="Times,serif" font-size="14.00" fill="#000000">userAnswer({JS_Obj questionId:"q3", selectedOptionIndex:0.0})</text>
</g>
<!-- 14&#45;&gt;15 -->
<g id="edge39" class="edge">
<title>14-&gt;15</title>
<path fill="none" stroke="#000000" d="M990.4769,-713.3396C987.5187,-712.1612 984.4972,-711.1423 981.5136,-710.4 941.1225,-700.3512 261.6031,-722.1829 232.5274,-692.4 227.3114,-687.0572 227.5195,-681.1383 232.5274,-675.6 253.6831,-652.2036 464.8437,-643.2936 552.0947,-640.5929"/>
<polygon fill="#000000" stroke="#000000" points="552.4518,-644.0839 562.3428,-640.2868 552.2427,-637.087 552.4518,-644.0839"/>
<text text-anchor="middle" x="417.0067" y="-679.8" font-family="Times,serif" font-size="14.00" fill="#000000">userAnswer({JS_Obj questionId:"q3", selectedOptionIndex:1.0})</text>
</g>
<!-- 25 -->
<g id="25" class="node">
<title>25</title>
<polygon fill="none" stroke="#000000" points="1430.5136,-657.6 1376.5136,-657.6 1376.5136,-621.6 1430.5136,-621.6 1430.5136,-657.6"/>
</g>
<!-- 14&#45;&gt;25 -->
<g id="edge30" class="edge">
<title>14-&gt;25</title>
<path fill="none" stroke="#000000" d="M1044.5544,-727.144C1123.2303,-723.2879 1348.1971,-710.7577 1375.5136,-692.4 1384.334,-686.4724 1390.5784,-676.8362 1394.8963,-667.4079"/>
<polygon fill="#000000" stroke="#000000" points="1398.2662,-668.4068 1398.7258,-657.8219 1391.7657,-665.8099 1398.2662,-668.4068"/>
<text text-anchor="middle" x="1574.0067" y="-679.8" font-family="Times,serif" font-size="14.00" fill="#000000">userAnswer({JS_Obj questionId:"q3", selectedOptionIndex:2.0})</text>
</g>
<!-- 16 -->
<g id="16" class="node">
<title>16</title>
<polygon fill="none" stroke="#000000" points="453.5136,-568.8 399.5136,-568.8 399.5136,-532.8 453.5136,-532.8 453.5136,-568.8"/>
</g>
<!-- 15&#45;&gt;16 -->
<g id="edge16" class="edge">
<title>15-&gt;16</title>
<path fill="none" stroke="#000000" d="M562.231,-624.7369C534.8809,-609.8369 492.6221,-586.815 462.5313,-570.4219"/>
<polygon fill="#000000" stroke="#000000" points="464.0692,-567.2741 453.6134,-565.5636 460.7204,-573.4211 464.0692,-567.2741"/>
<text text-anchor="middle" x="599.3026" y="-591" font-family="Times,serif" font-size="14.00" fill="#000000">incorrectAnswerMessage()</text>
</g>
<!-- 17 -->
<g id="17" class="node">
<title>17</title>
<polygon fill="none" stroke="#000000" points="453.5136,-480 399.5136,-480 399.5136,-444 453.5136,-444 453.5136,-480"/>
</g>
<!-- 16&#45;&gt;17 -->
<g id="edge17" class="edge">
<title>16-&gt;17</title>
<path fill="none" stroke="#000000" d="M426.5136,-532.4006C426.5136,-520.2949 426.5136,-504.2076 426.5136,-490.4674"/>
<polygon fill="#000000" stroke="#000000" points="430.0137,-490.072 426.5136,-480.072 423.0137,-490.0721 430.0137,-490.072"/>
<text text-anchor="middle" x="549.9551" y="-502.2" font-family="Times,serif" font-size="14.00" fill="#000000">displayQuestion({JS_Obj questionId:"q3"})</text>
</g>
<!-- 18 -->
<g id="18" class="node">
<title>18</title>
<polygon fill="none" stroke="#000000" points="231.5136,-391.2 177.5136,-391.2 177.5136,-355.2 231.5136,-355.2 231.5136,-391.2"/>
</g>
<!-- 17&#45;&gt;18 -->
<g id="edge18" class="edge">
<title>17-&gt;18</title>
<path fill="none" stroke="#000000" d="M399.2503,-460.6465C308.8179,-456.0273 23.711,-440.3739 10.5274,-426 5.4804,-420.4974 5.7536,-414.9412 10.5274,-409.2 30.0528,-385.7177 116.4956,-377.482 167.16,-374.6461"/>
<polygon fill="#000000" stroke="#000000" points="167.5845,-378.129 177.3913,-374.1194 167.2245,-371.1382 167.5845,-378.129"/>
<text text-anchor="middle" x="195.0067" y="-413.4" font-family="Times,serif" font-size="14.00" fill="#000000">userAnswer({JS_Obj questionId:"q3", selectedOptionIndex:3.0})</text>
</g>
<!-- 17&#45;&gt;18 -->
<g id="edge27" class="edge">
<title>17-&gt;18</title>
<path fill="none" stroke="#000000" d="M414.2648,-443.8397C405.4174,-432.152 392.4333,-417.6227 377.5136,-409.2 354.6981,-396.3198 285.3131,-384.601 241.6591,-378.2278"/>
<polygon fill="#000000" stroke="#000000" points="242.0887,-374.7537 231.6934,-376.8002 241.096,-381.6829 242.0887,-374.7537"/>
<text text-anchor="middle" x="582.0067" y="-413.4" font-family="Times,serif" font-size="14.00" fill="#000000">userAnswer({JS_Obj questionId:"q3", selectedOptionIndex:0.0})</text>
</g>
<!-- 17&#45;&gt;18 -->
<g id="edge28" class="edge">
<title>17-&gt;18</title>
<path fill="none" stroke="#000000" d="M453.5619,-461.1808C530.5368,-458.5734 746.6063,-449.2307 767.5136,-426 772.5085,-420.45 772.6221,-414.6456 767.5136,-409.2 749.506,-390.0042 364.6969,-377.6606 241.8523,-374.198"/>
<polygon fill="#000000" stroke="#000000" points="241.8878,-370.6977 231.7942,-373.9179 241.6929,-377.695 241.8878,-370.6977"/>
<text text-anchor="middle" x="955.0067" y="-413.4" font-family="Times,serif" font-size="14.00" fill="#000000">userAnswer({JS_Obj questionId:"q3", selectedOptionIndex:1.0})</text>
</g>
<!-- 19 -->
<g id="19" class="node">
<title>19</title>
<polygon fill="none" stroke="#000000" points="1210.5136,-391.2 1156.5136,-391.2 1156.5136,-355.2 1210.5136,-355.2 1210.5136,-391.2"/>
</g>
<!-- 17&#45;&gt;19 -->
<g id="edge20" class="edge">
<title>17-&gt;19</title>
<path fill="none" stroke="#000000" d="M453.6783,-461.2675C580.7249,-457.7615 1111.436,-442.1947 1142.5136,-426 1153.6581,-420.1925 1162.7101,-409.8516 1169.4459,-399.8513"/>
<polygon fill="#000000" stroke="#000000" points="1172.4694,-401.6168 1174.7635,-391.2733 1166.5198,-397.9286 1172.4694,-401.6168"/>
<text text-anchor="middle" x="1346.0067" y="-413.4" font-family="Times,serif" font-size="14.00" fill="#000000">userAnswer({JS_Obj questionId:"q3", selectedOptionIndex:2.0})</text>
</g>
<!-- 18&#45;&gt;16 -->
<g id="edge19" class="edge">
<title>18-&gt;16</title>
<path fill="none" stroke="#000000" d="M177.2025,-373.9312C127.4965,-375.8999 25.3545,-383.0997 3.5136,-409.2 -1.2782,-414.9263 -.9572,-420.0197 3.5136,-426 50.685,-489.0988 295.351,-531.3963 389.5184,-545.5619"/>
<polygon fill="#000000" stroke="#000000" points="389.0505,-549.0307 399.4559,-547.036 390.0777,-542.1064 389.0505,-549.0307"/>
<text text-anchor="middle" x="173.3026" y="-457.8" font-family="Times,serif" font-size="14.00" fill="#000000">incorrectAnswerMessage()</text>
</g>
<!-- 20 -->
<g id="20" class="node">
<title>20</title>
<polygon fill="none" stroke="#000000" points="1233.5136,-302.4 1179.5136,-302.4 1179.5136,-266.4 1233.5136,-266.4 1233.5136,-302.4"/>
</g>
<!-- 19&#45;&gt;20 -->
<g id="edge21" class="edge">
<title>19-&gt;20</title>
<path fill="none" stroke="#000000" d="M1188.2792,-354.8006C1191.4457,-342.575 1195.664,-326.2887 1199.2458,-312.4599"/>
<polygon fill="#000000" stroke="#000000" points="1202.7135,-313.0302 1201.8328,-302.472 1195.9371,-311.275 1202.7135,-313.0302"/>
<text text-anchor="middle" x="1267.8573" y="-324.6" font-family="Times,serif" font-size="14.00" fill="#000000">correctAnswerMessage()</text>
</g>
<!-- 21 -->
<g id="21" class="node">
<title>21</title>
<polygon fill="none" stroke="#000000" points="1339.5136,-213.6 1285.5136,-213.6 1285.5136,-177.6 1339.5136,-177.6 1339.5136,-213.6"/>
</g>
<!-- 20&#45;&gt;21 -->
<g id="edge22" class="edge">
<title>20-&gt;21</title>
<path fill="none" stroke="#000000" d="M1223.7308,-265.9974C1233.9548,-255.4632 1247.4096,-242.2632 1260.3326,-231.6 1265.5799,-227.2702 1271.3355,-222.9325 1277.0479,-218.8431"/>
<polygon fill="#000000" stroke="#000000" points="1279.1312,-221.6572 1285.3221,-213.0593 1275.1207,-215.9199 1279.1312,-221.6572"/>
<text text-anchor="middle" x="1358.1041" y="-235.8" font-family="Times,serif" font-size="14.00" fill="#000000">moveToEndingSceneComponent()</text>
</g>
<!-- 22 -->
<g id="22" class="node">
<title>22</title>
<polygon fill="none" stroke="#000000" points="1339.5136,-124.8 1285.5136,-124.8 1285.5136,-88.8 1339.5136,-88.8 1339.5136,-124.8"/>
</g>
<!-- 21&#45;&gt;22 -->
<g id="edge23" class="edge">
<title>21-&gt;22</title>
<path fill="none" stroke="#000000" d="M1312.5136,-177.2006C1312.5136,-165.0949 1312.5136,-149.0076 1312.5136,-135.2674"/>
<polygon fill="#000000" stroke="#000000" points="1316.0137,-134.872 1312.5136,-124.872 1309.0137,-134.8721 1316.0137,-134.872"/>
<text text-anchor="middle" x="1361.4891" y="-147" font-family="Times,serif" font-size="14.00" fill="#000000">selectExitGame()</text>
</g>
<!-- 24 -->
<g id="24" class="node">
<title>24</title>
<polygon fill="none" stroke="#000000" points="1882.5136,-124.8 1828.5136,-124.8 1828.5136,-88.8 1882.5136,-88.8 1882.5136,-124.8"/>
</g>
<!-- 21&#45;&gt;24 -->
<g id="edge25" class="edge">
<title>21-&gt;24</title>
<path fill="none" stroke="#000000" d="M1339.8132,-191.1355C1429.6347,-176.4465 1716.0742,-129.6033 1818.5861,-112.839"/>
<polygon fill="#000000" stroke="#000000" points="1819.1777,-116.2888 1828.4817,-111.2207 1818.0479,-109.3806 1819.1777,-116.2888"/>
<text text-anchor="middle" x="1712.041" y="-147" font-family="Times,serif" font-size="14.00" fill="#000000">selectReturnToMainMenu()</text>
</g>
<!-- 23 -->
<g id="23" class="node">
<title>23</title>
<polygon fill="none" stroke="#000000" points="1339.5136,-36 1285.5136,-36 1285.5136,0 1339.5136,0 1339.5136,-36"/>
</g>
<!-- 22&#45;&gt;23 -->
<g id="edge24" class="edge">
<title>22-&gt;23</title>
<path fill="none" stroke="#000000" d="M1312.5136,-88.4006C1312.5136,-76.2949 1312.5136,-60.2076 1312.5136,-46.4674"/>
<polygon fill="#000000" stroke="#000000" points="1316.0137,-46.072 1312.5136,-36.072 1309.0137,-46.0721 1316.0137,-46.072"/>
<text text-anchor="middle" x="1344.3853" y="-58.2" font-family="Times,serif" font-size="14.00" fill="#000000">exitGame()</text>
</g>
<!-- 24&#45;&gt;5 -->
<g id="edge26" class="edge">
<title>24-&gt;5</title>
<path fill="none" stroke="#000000" d="M1882.6295,-112.9625C1936.8567,-126.0752 2053.5136,-158.5855 2053.5136,-195.6 2053.5136,-994.8 2053.5136,-994.8 2053.5136,-994.8 2053.5136,-1027.8471 1957.3366,-1059.0488 1902.5634,-1074.1386"/>
<polygon fill="#000000" stroke="#000000" points="1901.5898,-1070.7761 1892.8504,-1076.7655 1903.4174,-1077.5333 1901.5898,-1070.7761"/>
<text text-anchor="middle" x="2145.2738" y="-591" font-family="Times,serif" font-size="14.00" fill="#000000">moveToMainMenuComponent()</text>
</g>
<!-- 26 -->
<g id="26" class="node">
<title>26</title>
<polygon fill="none" stroke="#000000" points="1484.5136,-568.8 1430.5136,-568.8 1430.5136,-532.8 1484.5136,-532.8 1484.5136,-568.8"/>
</g>
<!-- 25&#45;&gt;26 -->
<g id="edge31" class="edge">
<title>25-&gt;26</title>
<path fill="none" stroke="#000000" d="M1414.7024,-621.2006C1422.3555,-608.6155 1432.6254,-591.7271 1441.1881,-577.6463"/>
<polygon fill="#000000" stroke="#000000" points="1444.3185,-579.2348 1446.5238,-568.872 1438.3375,-575.5977 1444.3185,-579.2348"/>
<text text-anchor="middle" x="1505.8573" y="-591" font-family="Times,serif" font-size="14.00" fill="#000000">correctAnswerMessage()</text>
</g>
<!-- 27 -->
<g id="27" class="node">
<title>27</title>
<polygon fill="none" stroke="#000000" points="1510.5136,-480 1456.5136,-480 1456.5136,-444 1510.5136,-444 1510.5136,-480"/>
</g>
<!-- 26&#45;&gt;27 -->
<g id="edge32" class="edge">
<title>26-&gt;27</title>
<path fill="none" stroke="#000000" d="M1462.9008,-532.4006C1466.4803,-520.175 1471.2489,-503.8887 1475.2978,-490.0599"/>
<polygon fill="#000000" stroke="#000000" points="1478.7712,-490.6526 1478.2222,-480.072 1472.0532,-488.6856 1478.7712,-490.6526"/>
<text text-anchor="middle" x="1512.7703" y="-502.2" font-family="Times,serif" font-size="14.00" fill="#000000">updateScore()</text>
</g>
<!-- 28 -->
<g id="28" class="node">
<title>28</title>
<polygon fill="none" stroke="#000000" points="1596.5136,-391.2 1542.5136,-391.2 1542.5136,-355.2 1596.5136,-355.2 1596.5136,-391.2"/>
</g>
<!-- 27&#45;&gt;28 -->
<g id="edge33" class="edge">
<title>27-&gt;28</title>
<path fill="none" stroke="#000000" d="M1510.5439,-451.6968C1523.1416,-445.7708 1537.52,-437.2437 1547.5136,-426 1553.8407,-418.8814 1558.5148,-409.686 1561.8865,-400.969"/>
<polygon fill="#000000" stroke="#000000" points="1565.2119,-402.0614 1565.1584,-391.4667 1558.5933,-399.7824 1565.2119,-402.0614"/>
<text text-anchor="middle" x="1656.1041" y="-413.4" font-family="Times,serif" font-size="14.00" fill="#000000">moveToEndingSceneComponent()</text>
</g>
<!-- 29 -->
<g id="29" class="node">
<title>29</title>
<polygon fill="none" stroke="#000000" points="1607.5136,-302.4 1553.5136,-302.4 1553.5136,-266.4 1607.5136,-266.4 1607.5136,-302.4"/>
</g>
<!-- 28&#45;&gt;29 -->
<g id="edge34" class="edge">
<title>28-&gt;29</title>
<path fill="none" stroke="#000000" d="M1571.7928,-354.8006C1573.3072,-342.575 1575.3247,-326.2887 1577.0377,-312.4599"/>
<polygon fill="#000000" stroke="#000000" points="1580.5189,-312.8265 1578.2749,-302.472 1573.572,-311.9659 1580.5189,-312.8265"/>
<text text-anchor="middle" x="1655.041" y="-324.6" font-family="Times,serif" font-size="14.00" fill="#000000">selectReturnToMainMenu()</text>
</g>
<!-- 31 -->
<g id="31" class="node">
<title>31</title>
<polygon fill="none" stroke="#000000" points="1486.5136,-302.4 1432.5136,-302.4 1432.5136,-266.4 1486.5136,-266.4 1486.5136,-302.4"/>
</g>
<!-- 28&#45;&gt;31 -->
<g id="edge37" class="edge">
<title>28-&gt;31</title>
<path fill="none" stroke="#000000" d="M1542.1977,-370.0494C1520.2987,-366.0783 1490.3785,-357.1572 1472.5626,-337.2 1466.5062,-330.4157 1463.1599,-321.2628 1461.3418,-312.4838"/>
<polygon fill="#000000" stroke="#000000" points="1464.7905,-311.8804 1459.8386,-302.514 1457.8687,-312.9241 1464.7905,-311.8804"/>
<text text-anchor="middle" x="1522.4891" y="-324.6" font-family="Times,serif" font-size="14.00" fill="#000000">selectExitGame()</text>
</g>
<!-- 30 -->
<g id="30" class="node">
<title>30</title>
<polygon fill="none" stroke="#000000" points="1706.5136,-213.6 1652.5136,-213.6 1652.5136,-177.6 1706.5136,-177.6 1706.5136,-213.6"/>
</g>
<!-- 29&#45;&gt;30 -->
<g id="edge35" class="edge">
<title>29-&gt;30</title>
<path fill="none" stroke="#000000" d="M1576.2503,-266.1585C1574.7616,-255.1642 1574.9344,-241.4336 1581.9932,-231.6 1589.393,-221.2913 1618.0897,-211.4452 1642.4531,-204.664"/>
<polygon fill="#000000" stroke="#000000" points="1643.4602,-208.0176 1652.2094,-202.0425 1641.6437,-201.2574 1643.4602,-208.0176"/>
<text text-anchor="middle" x="1674.2738" y="-235.8" font-family="Times,serif" font-size="14.00" fill="#000000">moveToMainMenuComponent()</text>
</g>
<!-- 30&#45;&gt;6 -->
<g id="edge36" class="edge">
<title>30-&gt;6</title>
<path fill="none" stroke="#000000" d="M1706.9086,-200.4507C1725.9543,-205.2202 1750.5205,-214.3937 1765.5136,-231.6 1781.4628,-249.9036 1779.5136,-260.1224 1779.5136,-284.4 1779.5136,-906 1779.5136,-906 1779.5136,-906 1779.5136,-930.2776 1781.573,-940.5929 1765.5136,-958.8 1752.1177,-973.9874 1731.3898,-982.8678 1713.3071,-988.0068"/>
<polygon fill="#000000" stroke="#000000" points="1712.4159,-984.622 1703.5966,-990.4933 1714.1523,-991.4033 1712.4159,-984.622"/>
<text text-anchor="middle" x="1816.2419" y="-591" font-family="Times,serif" font-size="14.00" fill="#000000">Reset score()</text>
</g>
<!-- 32 -->
<g id="32" class="node">
<title>32</title>
<polygon fill="none" stroke="#000000" points="1486.5136,-213.6 1432.5136,-213.6 1432.5136,-177.6 1486.5136,-177.6 1486.5136,-213.6"/>
</g>
<!-- 31&#45;&gt;32 -->
<g id="edge38" class="edge">
<title>31-&gt;32</title>
<path fill="none" stroke="#000000" d="M1459.5136,-266.0006C1459.5136,-253.8949 1459.5136,-237.8076 1459.5136,-224.0674"/>
<polygon fill="#000000" stroke="#000000" points="1463.0137,-223.672 1459.5136,-213.672 1456.0137,-223.6721 1463.0137,-223.672"/>
<text text-anchor="middle" x="1491.3853" y="-235.8" font-family="Times,serif" font-size="14.00" fill="#000000">exitGame()</text>
</g>
<!-- 34 -->
<g id="34" class="node">
<title>34</title>
<polygon fill="none" stroke="#000000" points="1861.5136,-835.2 1807.5136,-835.2 1807.5136,-799.2 1861.5136,-799.2 1861.5136,-835.2"/>
</g>
<!-- 33&#45;&gt;34 -->
<g id="edge41" class="edge">
<title>33-&gt;34</title>
<path fill="none" stroke="#000000" d="M1834.5136,-887.6006C1834.5136,-875.4949 1834.5136,-859.4076 1834.5136,-845.6674"/>
<polygon fill="#000000" stroke="#000000" points="1838.0137,-845.272 1834.5136,-835.272 1831.0137,-845.2721 1838.0137,-845.272"/>
<text text-anchor="middle" x="1936.3783" y="-857.4" font-family="Times,serif" font-size="14.00" fill="#000000">moveToMathUmbrellaComponent()</text>
</g>
<!-- 36 -->
<g id="36" class="node">
<title>36</title>
<polygon fill="none" stroke="#000000" points="2105.5136,-1190.4 2051.5136,-1190.4 2051.5136,-1154.4 2105.5136,-1154.4 2105.5136,-1190.4"/>
</g>
<!-- 35&#45;&gt;36 -->
<g id="edge43" class="edge">
<title>35-&gt;36</title>
<path fill="none" stroke="#000000" d="M2072.701,-1262.0793C2073.7937,-1245.221 2075.4306,-1219.9651 2076.6892,-1200.547"/>
<polygon fill="#000000" stroke="#000000" points="2080.1894,-1200.6556 2077.3437,-1190.4502 2073.2041,-1200.2028 2080.1894,-1200.6556"/>
<text text-anchor="middle" x="2124.8825" y="-1222.2" font-family="Times,serif" font-size="14.00" fill="#000000">terminateMovie()</text>
</g>
<!-- 36&#45;&gt;5 -->
<g id="edge44" class="edge">
<title>36-&gt;5</title>
<path fill="none" stroke="#000000" d="M2051.2047,-1160.3055C2046.6408,-1158.3145 2041.9489,-1156.2862 2037.5136,-1154.4 1990.9294,-1134.5897 1936.9016,-1112.493 1902.0141,-1098.3384"/>
<polygon fill="#000000" stroke="#000000" points="1903.2861,-1095.0774 1892.7037,-1094.5652 1900.6569,-1101.5649 1903.2861,-1095.0774"/>
<text text-anchor="middle" x="2082.2738" y="-1123.8" font-family="Times,serif" font-size="14.00" fill="#000000">moveToMainMenuComponent()</text>
</g>
</g>
</svg>